<mxfile host="Electron" agent="Mozilla/5.0 (Windows NT 10.0; Win64; x64) AppleWebKit/537.36 (KHTML, like Gecko) draw.io/26.2.2 Chrome/134.0.6998.178 Electron/35.1.2 Safari/537.36" version="26.2.2">
  <diagram name="Page-1" id="6x8NPzRuqfLoAj6asVxv">
    <mxGraphModel dx="2456" dy="2137" grid="1" gridSize="10" guides="1" tooltips="1" connect="1" arrows="1" fold="1" page="1" pageScale="1" pageWidth="850" pageHeight="1100" math="0" shadow="0">
      <root>
        <mxCell id="0" />
        <mxCell id="1" parent="0" />
        <mxCell id="V483_an6sq9II-iybFKx-1" value="" style="swimlane;startSize=0;fontColor=#B9E0A5;labelBackgroundColor=#33FF99;" parent="1" vertex="1">
          <mxGeometry x="130" y="-310" width="1110" height="1550" as="geometry" />
        </mxCell>
        <mxCell id="V483_an6sq9II-iybFKx-2" value="Register an account" style="ellipse;whiteSpace=wrap;html=1;" parent="V483_an6sq9II-iybFKx-1" vertex="1">
          <mxGeometry x="22.5" y="10" width="150" height="40" as="geometry" />
        </mxCell>
        <mxCell id="V483_an6sq9II-iybFKx-14" value="Log in to platform" style="ellipse;whiteSpace=wrap;html=1;" parent="V483_an6sq9II-iybFKx-1" vertex="1">
          <mxGeometry x="22.5" y="60" width="150" height="40" as="geometry" />
        </mxCell>
        <mxCell id="V483_an6sq9II-iybFKx-20" value="Upload 3D models / simulations" style="ellipse;whiteSpace=wrap;html=1;" parent="V483_an6sq9II-iybFKx-1" vertex="1">
          <mxGeometry x="22.5" y="260" width="150" height="40" as="geometry" />
        </mxCell>
        <mxCell id="V483_an6sq9II-iybFKx-19" value="Upload researches /&amp;nbsp;&lt;div&gt;project ideas&lt;/div&gt;" style="ellipse;whiteSpace=wrap;html=1;" parent="V483_an6sq9II-iybFKx-1" vertex="1">
          <mxGeometry x="22.5" y="210" width="150" height="40" as="geometry" />
        </mxCell>
        <mxCell id="V483_an6sq9II-iybFKx-18" value="Update profile and skills" style="ellipse;whiteSpace=wrap;html=1;" parent="V483_an6sq9II-iybFKx-1" vertex="1">
          <mxGeometry x="23.75" y="160" width="146.25" height="40" as="geometry" />
        </mxCell>
        <mxCell id="V483_an6sq9II-iybFKx-17" value="Purchase planning / researches" style="ellipse;whiteSpace=wrap;html=1;" parent="V483_an6sq9II-iybFKx-1" vertex="1">
          <mxGeometry x="22.5" y="310" width="150" height="40" as="geometry" />
        </mxCell>
        <mxCell id="V483_an6sq9II-iybFKx-16" value="View hardware&amp;nbsp;&lt;div&gt;project videos&lt;/div&gt;" style="ellipse;whiteSpace=wrap;html=1;" parent="V483_an6sq9II-iybFKx-1" vertex="1">
          <mxGeometry x="22.5" y="360" width="150" height="40" as="geometry" />
        </mxCell>
        <mxCell id="V483_an6sq9II-iybFKx-15" value="Recover Account" style="ellipse;whiteSpace=wrap;html=1;" parent="V483_an6sq9II-iybFKx-1" vertex="1">
          <mxGeometry x="23.75" y="110" width="148.75" height="40" as="geometry" />
        </mxCell>
        <mxCell id="V483_an6sq9II-iybFKx-23" value="Track task progress" style="ellipse;whiteSpace=wrap;html=1;" parent="V483_an6sq9II-iybFKx-1" vertex="1">
          <mxGeometry x="20" y="510" width="152.5" height="40" as="geometry" />
        </mxCell>
        <mxCell id="V483_an6sq9II-iybFKx-22" value="Submit code for&amp;nbsp;&lt;div&gt;hardware projects&lt;/div&gt;" style="ellipse;whiteSpace=wrap;html=1;" parent="V483_an6sq9II-iybFKx-1" vertex="1">
          <mxGeometry x="22.5" y="410" width="150" height="40" as="geometry" />
        </mxCell>
        <mxCell id="V483_an6sq9II-iybFKx-21" value="Accept assigned tasks" style="ellipse;whiteSpace=wrap;html=1;" parent="V483_an6sq9II-iybFKx-1" vertex="1">
          <mxGeometry x="22.5" y="460" width="150" height="40" as="geometry" />
        </mxCell>
        <mxCell id="V483_an6sq9II-iybFKx-28" value="View AI based recommendation" style="ellipse;whiteSpace=wrap;html=1;" parent="V483_an6sq9II-iybFKx-1" vertex="1">
          <mxGeometry x="23.75" y="610" width="152.5" height="40" as="geometry" />
        </mxCell>
        <mxCell id="V483_an6sq9II-iybFKx-27" value="Earn revenue from completed work" style="ellipse;whiteSpace=wrap;html=1;" parent="V483_an6sq9II-iybFKx-1" vertex="1">
          <mxGeometry x="20" y="560" width="152.5" height="40" as="geometry" />
        </mxCell>
        <mxCell id="V483_an6sq9II-iybFKx-48" value="&amp;nbsp;Assign research /&amp;nbsp;&lt;div&gt;design&amp;nbsp;&lt;span style=&quot;background-color: transparent; color: light-dark(rgb(0, 0, 0), rgb(255, 255, 255));&quot;&gt;/ dev tasks&amp;nbsp;&lt;/span&gt;&lt;/div&gt;" style="ellipse;whiteSpace=wrap;html=1;" parent="V483_an6sq9II-iybFKx-1" vertex="1">
          <mxGeometry x="20" y="880" width="152.5" height="40" as="geometry" />
        </mxCell>
        <mxCell id="V483_an6sq9II-iybFKx-47" value="Purchase 3D&amp;nbsp;&lt;div&gt;models / simulations&lt;/div&gt;" style="ellipse;whiteSpace=wrap;html=1;" parent="V483_an6sq9II-iybFKx-1" vertex="1">
          <mxGeometry x="20" y="830" width="152.5" height="40" as="geometry" />
        </mxCell>
        <mxCell id="V483_an6sq9II-iybFKx-46" value="Purchase project&amp;nbsp;&lt;div&gt;ideas / research&lt;/div&gt;" style="ellipse;whiteSpace=wrap;html=1;" parent="V483_an6sq9II-iybFKx-1" vertex="1">
          <mxGeometry x="20.630000000000003" y="780" width="152.5" height="40" as="geometry" />
        </mxCell>
        <mxCell id="V483_an6sq9II-iybFKx-45" value="View freelancer&amp;nbsp;&lt;div&gt;profiles / projects&lt;/div&gt;" style="ellipse;whiteSpace=wrap;html=1;" parent="V483_an6sq9II-iybFKx-1" vertex="1">
          <mxGeometry x="21.25" y="730" width="152.5" height="40" as="geometry" />
        </mxCell>
        <mxCell id="V483_an6sq9II-iybFKx-44" value="Register and submit verification" style="ellipse;whiteSpace=wrap;html=1;" parent="V483_an6sq9II-iybFKx-1" vertex="1">
          <mxGeometry x="23.75" y="680" width="152.5" height="40" as="geometry" />
        </mxCell>
        <mxCell id="V483_an6sq9II-iybFKx-43" value="&lt;span style=&quot;color: rgba(0, 0, 0, 0); font-family: monospace; font-size: 0px; text-align: start; text-wrap-mode: nowrap;&quot;&gt;%3CmxGraphModel%3E%3Croot%3E%3CmxCell%20id%3D%220%22%2F%3E%3CmxCell%20id%3D%221%22%20parent%3D%220%22%2F%3E%3CmxCell%20id%3D%222%22%20value%3D%22Outsource%20to%20local%20teams%22%20style%3D%22ellipse%3BwhiteSpace%3Dwrap%3Bhtml%3D1%3B%22%20vertex%3D%221%22%20parent%3D%221%22%3E%3CmxGeometry%20x%3D%22170%22%20y%3D%22680%22%20width%3D%22152.5%22%20height%3D%2240%22%20as%3D%22geometry%22%2F%3E%3C%2FmxCell%3E%3C%2Froot%3E%3C%2FmxGraphModel%3E&lt;/span&gt;Upload project&amp;nbsp;&lt;div&gt;hardware demo&lt;/div&gt;" style="ellipse;whiteSpace=wrap;html=1;" parent="V483_an6sq9II-iybFKx-1" vertex="1">
          <mxGeometry x="18.75" y="980" width="152.5" height="40" as="geometry" />
        </mxCell>
        <mxCell id="V483_an6sq9II-iybFKx-59" value="Conduct post maintenance&lt;span style=&quot;background-color: transparent; color: light-dark(rgb(0, 0, 0), rgb(255, 255, 255));&quot;&gt;&amp;nbsp;R&amp;amp;D&lt;/span&gt;" style="ellipse;whiteSpace=wrap;html=1;" parent="V483_an6sq9II-iybFKx-1" vertex="1">
          <mxGeometry x="18.75" y="1230" width="152.5" height="40" as="geometry" />
        </mxCell>
        <mxCell id="V483_an6sq9II-iybFKx-58" value="Maintain robot" style="ellipse;whiteSpace=wrap;html=1;" parent="V483_an6sq9II-iybFKx-1" vertex="1">
          <mxGeometry x="18.75" y="1180" width="152.5" height="40" as="geometry" />
        </mxCell>
        <mxCell id="V483_an6sq9II-iybFKx-57" value="Deploy robot" style="ellipse;whiteSpace=wrap;html=1;" parent="V483_an6sq9II-iybFKx-1" vertex="1">
          <mxGeometry x="18.75" y="1130" width="152.5" height="40" as="geometry" />
        </mxCell>
        <mxCell id="V483_an6sq9II-iybFKx-56" value="Test / debug&amp;nbsp;&lt;div&gt;integrated robot&lt;/div&gt;" style="ellipse;whiteSpace=wrap;html=1;" parent="V483_an6sq9II-iybFKx-1" vertex="1">
          <mxGeometry x="18.75" y="1080" width="152.5" height="40" as="geometry" />
        </mxCell>
        <mxCell id="V483_an6sq9II-iybFKx-55" value="Integrate code with hardware" style="ellipse;whiteSpace=wrap;html=1;" parent="V483_an6sq9II-iybFKx-1" vertex="1">
          <mxGeometry x="18.75" y="1030" width="152.5" height="40" as="geometry" />
        </mxCell>
        <mxCell id="V483_an6sq9II-iybFKx-63" value="Publish completed&amp;nbsp;&lt;div&gt;robotics project&lt;/div&gt;" style="ellipse;whiteSpace=wrap;html=1;" parent="V483_an6sq9II-iybFKx-1" vertex="1">
          <mxGeometry x="18.75" y="1280" width="152.5" height="40" as="geometry" />
        </mxCell>
        <mxCell id="V483_an6sq9II-iybFKx-64" value="Sell robotics project" style="ellipse;whiteSpace=wrap;html=1;" parent="V483_an6sq9II-iybFKx-1" vertex="1">
          <mxGeometry x="18.75" y="1330" width="152.5" height="40" as="geometry" />
        </mxCell>
        <mxCell id="V483_an6sq9II-iybFKx-65" value="Distribute revenue" style="ellipse;whiteSpace=wrap;html=1;" parent="V483_an6sq9II-iybFKx-1" vertex="1">
          <mxGeometry x="21.25" y="1380" width="152.5" height="40" as="geometry" />
        </mxCell>
        <mxCell id="V483_an6sq9II-iybFKx-66" value="Compensate&amp;nbsp;&lt;div&gt;outsourced team &lt;/div&gt;" style="ellipse;whiteSpace=wrap;html=1;" parent="V483_an6sq9II-iybFKx-1" vertex="1">
          <mxGeometry x="18.75" y="1430" width="152.5" height="40" as="geometry" />
        </mxCell>
        <mxCell id="elvzSRphuKa_Uweao7Ht-12" value="Outsource to local teams" style="ellipse;whiteSpace=wrap;html=1;" parent="V483_an6sq9II-iybFKx-1" vertex="1">
          <mxGeometry x="20.629999999999995" y="930" width="152.5" height="40" as="geometry" />
        </mxCell>
        <mxCell id="elvzSRphuKa_Uweao7Ht-31" value="&amp;nbsp; Register with minimum&amp;nbsp;&lt;div&gt;10 members&lt;/div&gt;" style="ellipse;whiteSpace=wrap;html=1;" parent="V483_an6sq9II-iybFKx-1" vertex="1">
          <mxGeometry x="20" y="1500" width="152.5" height="40" as="geometry" />
        </mxCell>
        <mxCell id="elvzSRphuKa_Uweao7Ht-36" value="Verify companies and freelancers details" style="ellipse;whiteSpace=wrap;html=1;" parent="V483_an6sq9II-iybFKx-1" vertex="1">
          <mxGeometry x="932.5" y="400" width="150" height="40" as="geometry" />
        </mxCell>
        <mxCell id="elvzSRphuKa_Uweao7Ht-37" value="&amp;nbsp;Verify team members count and details&amp;nbsp;" style="ellipse;whiteSpace=wrap;html=1;" parent="V483_an6sq9II-iybFKx-1" vertex="1">
          <mxGeometry x="932.5" y="450" width="150" height="40" as="geometry" />
        </mxCell>
        <mxCell id="elvzSRphuKa_Uweao7Ht-38" value="Handle disputes" style="ellipse;whiteSpace=wrap;html=1;" parent="V483_an6sq9II-iybFKx-1" vertex="1">
          <mxGeometry x="932.5" y="650" width="150" height="40" as="geometry" />
        </mxCell>
        <mxCell id="elvzSRphuKa_Uweao7Ht-39" value="Monitor transactions" style="ellipse;whiteSpace=wrap;html=1;" parent="V483_an6sq9II-iybFKx-1" vertex="1">
          <mxGeometry x="932.5" y="600" width="150" height="40" as="geometry" />
        </mxCell>
        <mxCell id="elvzSRphuKa_Uweao7Ht-40" value="Unlock locked&amp;nbsp;&lt;div&gt;a&lt;span style=&quot;background-color: transparent; color: light-dark(rgb(0, 0, 0), rgb(255, 255, 255));&quot;&gt;ccounts via OTP&lt;/span&gt;&lt;/div&gt;" style="ellipse;whiteSpace=wrap;html=1;" parent="V483_an6sq9II-iybFKx-1" vertex="1">
          <mxGeometry x="500" y="560" width="146.25" height="40" as="geometry" />
        </mxCell>
        <mxCell id="elvzSRphuKa_Uweao7Ht-41" value="Broadcast Announcements" style="ellipse;whiteSpace=wrap;html=1;" parent="V483_an6sq9II-iybFKx-1" vertex="1">
          <mxGeometry x="932.5" y="700" width="150" height="40" as="geometry" />
        </mxCell>
        <mxCell id="elvzSRphuKa_Uweao7Ht-42" value="Manage platform content" style="ellipse;whiteSpace=wrap;html=1;" parent="V483_an6sq9II-iybFKx-1" vertex="1">
          <mxGeometry x="932.5" y="750" width="150" height="40" as="geometry" />
        </mxCell>
        <mxCell id="elvzSRphuKa_Uweao7Ht-43" value="Manage user accounts" style="ellipse;whiteSpace=wrap;html=1;" parent="V483_an6sq9II-iybFKx-1" vertex="1">
          <mxGeometry x="933.75" y="500" width="148.75" height="40" as="geometry" />
        </mxCell>
        <mxCell id="elvzSRphuKa_Uweao7Ht-44" value="Track platform performance" style="ellipse;whiteSpace=wrap;html=1;" parent="V483_an6sq9II-iybFKx-1" vertex="1">
          <mxGeometry x="930" y="900" width="152.5" height="40" as="geometry" />
        </mxCell>
        <mxCell id="elvzSRphuKa_Uweao7Ht-45" value="&lt;table&gt;&lt;tbody&gt;&lt;tr&gt;&lt;td style=&quot;&quot; data-end=&quot;1147&quot; data-start=&quot;1108&quot; class=&quot;max-w-[calc(var(--thread-content-max-width)*2/3)]&quot;&gt;&lt;span data-end=&quot;1146&quot; data-start=&quot;1110&quot;&gt;Oversee AI recommendation system&lt;/span&gt;&lt;/td&gt;&lt;/tr&gt;&lt;/tbody&gt;&lt;/table&gt;&lt;table&gt;&lt;tbody&gt;&lt;tr&gt;&lt;td data-end=&quot;1211&quot; data-start=&quot;1147&quot; class=&quot;max-w-[calc(var(--thread-content-max-width)*2/3)] min-w-[calc(var(--thread-content-max-width)/3)]&quot;&gt;&lt;/td&gt;&lt;/tr&gt;&lt;/tbody&gt;&lt;/table&gt;" style="ellipse;whiteSpace=wrap;html=1;" parent="V483_an6sq9II-iybFKx-1" vertex="1">
          <mxGeometry x="932.5" y="800" width="150" height="40" as="geometry" />
        </mxCell>
        <mxCell id="elvzSRphuKa_Uweao7Ht-46" value="Configure platform settings" style="ellipse;whiteSpace=wrap;html=1;" parent="V483_an6sq9II-iybFKx-1" vertex="1">
          <mxGeometry x="932.5" y="850" width="150" height="40" as="geometry" />
        </mxCell>
        <mxCell id="elvzSRphuKa_Uweao7Ht-47" value="Backup and recovery operations" style="ellipse;whiteSpace=wrap;html=1;" parent="V483_an6sq9II-iybFKx-1" vertex="1">
          <mxGeometry x="931.88" y="550" width="152.5" height="40" as="geometry" />
        </mxCell>
        <mxCell id="elvzSRphuKa_Uweao7Ht-48" value="Enforce GDPR &amp;amp;&amp;nbsp;&lt;div&gt;privacy compliance&lt;/div&gt;" style="ellipse;whiteSpace=wrap;html=1;" parent="V483_an6sq9II-iybFKx-1" vertex="1">
          <mxGeometry x="930" y="950" width="152.5" height="40" as="geometry" />
        </mxCell>
        <mxCell id="elvzSRphuKa_Uweao7Ht-64" value="Recommend tasks/projects to freelancers&amp;nbsp;&lt;div&gt;based on profile &amp;amp; history&lt;/div&gt;" style="ellipse;whiteSpace=wrap;html=1;" parent="V483_an6sq9II-iybFKx-1" vertex="1">
          <mxGeometry x="800" y="70" width="286.25" height="40" as="geometry" />
        </mxCell>
        <mxCell id="elvzSRphuKa_Uweao7Ht-70" value="Recommend freelancers/designers to companies/teams based on project needs" style="ellipse;whiteSpace=wrap;html=1;" parent="V483_an6sq9II-iybFKx-1" vertex="1">
          <mxGeometry x="803.75" y="120" width="286.25" height="40" as="geometry" />
        </mxCell>
        <mxCell id="elvzSRphuKa_Uweao7Ht-71" value="Analyze profiles, performance and&amp;nbsp;&lt;div&gt;&lt;span style=&quot;background-color: transparent; color: light-dark(rgb(0, 0, 0), rgb(255, 255, 255));&quot;&gt;rating&amp;nbsp;&lt;/span&gt;&lt;span style=&quot;background-color: transparent; color: light-dark(rgb(0, 0, 0), rgb(255, 255, 255));&quot;&gt;data for better matching&lt;/span&gt;&lt;/div&gt;" style="ellipse;whiteSpace=wrap;html=1;" parent="V483_an6sq9II-iybFKx-1" vertex="1">
          <mxGeometry x="803.75" y="170" width="286.25" height="40" as="geometry" />
        </mxCell>
        <mxCell id="elvzSRphuKa_Uweao7Ht-72" value="Handle purchases CAD files, research, full projects" style="ellipse;whiteSpace=wrap;html=1;" parent="V483_an6sq9II-iybFKx-1" vertex="1">
          <mxGeometry x="803.75" y="1190" width="286.25" height="40" as="geometry" />
        </mxCell>
        <mxCell id="elvzSRphuKa_Uweao7Ht-73" value="Distribute revenue to freelancers and&amp;nbsp;&lt;div&gt;companies after platform fee deduction&lt;/div&gt;" style="ellipse;whiteSpace=wrap;html=1;" parent="V483_an6sq9II-iybFKx-1" vertex="1">
          <mxGeometry x="800" y="1240" width="286.25" height="40" as="geometry" />
        </mxCell>
        <mxCell id="elvzSRphuKa_Uweao7Ht-74" value="Process refunds for failed outsourcing tasks" style="ellipse;whiteSpace=wrap;html=1;" parent="V483_an6sq9II-iybFKx-1" vertex="1">
          <mxGeometry x="803.75" y="1290" width="286.25" height="40" as="geometry" />
        </mxCell>
        <mxCell id="elvzSRphuKa_Uweao7Ht-78" value="&lt;&lt;include&gt;&gt;" style="edgeStyle=none;endArrow=open;verticalAlign=bottom;dashed=1;labelBackgroundColor=none;rounded=0;exitX=0;exitY=0.5;exitDx=0;exitDy=0;entryX=1;entryY=0.5;entryDx=0;entryDy=0;strokeColor=#FF3333;fontColor=#00FFFF;" parent="V483_an6sq9II-iybFKx-1" source="elvzSRphuKa_Uweao7Ht-36" target="V483_an6sq9II-iybFKx-14" edge="1">
          <mxGeometry width="160" relative="1" as="geometry">
            <mxPoint x="889.5000000000114" y="420" as="sourcePoint" />
            <mxPoint x="1067" y="248.37748344372426" as="targetPoint" />
          </mxGeometry>
        </mxCell>
        <mxCell id="elvzSRphuKa_Uweao7Ht-79" value="&lt;&lt;include&gt;&gt;" style="edgeStyle=none;endArrow=open;verticalAlign=bottom;dashed=1;labelBackgroundColor=none;rounded=0;exitX=0;exitY=0.5;exitDx=0;exitDy=0;entryX=1;entryY=0.5;entryDx=0;entryDy=0;strokeColor=light-dark(#000000,#FF3333);fontColor=#00FFFF;" parent="V483_an6sq9II-iybFKx-1" source="elvzSRphuKa_Uweao7Ht-37" target="elvzSRphuKa_Uweao7Ht-31" edge="1">
          <mxGeometry width="160" relative="1" as="geometry">
            <mxPoint x="943" y="430" as="sourcePoint" />
            <mxPoint x="183" y="90" as="targetPoint" />
          </mxGeometry>
        </mxCell>
        <mxCell id="elvzSRphuKa_Uweao7Ht-80" value="&lt;&lt;include&gt;&gt;" style="edgeStyle=none;endArrow=open;verticalAlign=bottom;dashed=1;labelBackgroundColor=none;rounded=0;exitX=1;exitY=0.5;exitDx=0;exitDy=0;entryX=0;entryY=0.5;entryDx=0;entryDy=0;strokeColor=#FF3333;fontColor=#00FFFF;" parent="V483_an6sq9II-iybFKx-1" source="V483_an6sq9II-iybFKx-17" target="elvzSRphuKa_Uweao7Ht-72" edge="1">
          <mxGeometry width="160" relative="1" as="geometry">
            <mxPoint x="310" y="350" as="sourcePoint" />
            <mxPoint x="470" y="350" as="targetPoint" />
          </mxGeometry>
        </mxCell>
        <mxCell id="elvzSRphuKa_Uweao7Ht-83" value="&amp;lt;&amp;lt;include&amp;gt;&amp;gt;" style="edgeStyle=none;html=1;endArrow=open;verticalAlign=bottom;dashed=1;labelBackgroundColor=none;rounded=0;exitX=1;exitY=0.5;exitDx=0;exitDy=0;entryX=0;entryY=0.5;entryDx=0;entryDy=0;strokeColor=#FF3333;fontColor=#00FFFF;" parent="V483_an6sq9II-iybFKx-1" source="V483_an6sq9II-iybFKx-27" target="elvzSRphuKa_Uweao7Ht-73" edge="1">
          <mxGeometry width="160" relative="1" as="geometry">
            <mxPoint x="120" y="380" as="sourcePoint" />
            <mxPoint x="751" y="1260" as="targetPoint" />
          </mxGeometry>
        </mxCell>
        <mxCell id="elvzSRphuKa_Uweao7Ht-85" value="&lt;&lt;include&gt;&gt;" style="edgeStyle=none;endArrow=open;verticalAlign=bottom;dashed=1;labelBackgroundColor=none;rounded=0;exitX=1;exitY=0.5;exitDx=0;exitDy=0;entryX=0;entryY=0.5;entryDx=0;entryDy=0;strokeColor=#FF3333;fontColor=#00FFFF;" parent="V483_an6sq9II-iybFKx-1" source="V483_an6sq9II-iybFKx-28" target="elvzSRphuKa_Uweao7Ht-64" edge="1">
          <mxGeometry width="160" relative="1" as="geometry">
            <mxPoint x="260" y="260" as="sourcePoint" />
            <mxPoint x="891" y="1140" as="targetPoint" />
          </mxGeometry>
        </mxCell>
        <mxCell id="elvzSRphuKa_Uweao7Ht-86" value="&lt;&lt;include&gt;&gt;" style="edgeStyle=none;endArrow=open;verticalAlign=bottom;dashed=1;labelBackgroundColor=none;rounded=0;exitX=1;exitY=0.5;exitDx=0;exitDy=0;entryX=0.541;entryY=0.003;entryDx=0;entryDy=0;strokeColor=#FF3333;entryPerimeter=0;fontColor=#00FFFF;" parent="V483_an6sq9II-iybFKx-1" source="V483_an6sq9II-iybFKx-46" target="elvzSRphuKa_Uweao7Ht-72" edge="1">
          <mxGeometry x="-0.0578" y="15" width="160" relative="1" as="geometry">
            <mxPoint x="239.5" y="480" as="sourcePoint" />
            <mxPoint x="870.5" y="1360" as="targetPoint" />
            <mxPoint as="offset" />
          </mxGeometry>
        </mxCell>
        <mxCell id="elvzSRphuKa_Uweao7Ht-87" value="&lt;&lt;include&gt;&gt;" style="edgeStyle=none;endArrow=open;verticalAlign=bottom;dashed=1;labelBackgroundColor=none;rounded=0;exitX=1;exitY=0.5;exitDx=0;exitDy=0;entryX=0.067;entryY=0.825;entryDx=0;entryDy=0;strokeColor=#FF3333;entryPerimeter=0;fontColor=#00FFFF;" parent="V483_an6sq9II-iybFKx-1" source="V483_an6sq9II-iybFKx-64" target="elvzSRphuKa_Uweao7Ht-73" edge="1">
          <mxGeometry width="160" relative="1" as="geometry">
            <mxPoint x="302.75" y="890" as="sourcePoint" />
            <mxPoint x="933.75" y="1770" as="targetPoint" />
          </mxGeometry>
        </mxCell>
        <mxCell id="elvzSRphuKa_Uweao7Ht-88" value="&lt;&lt;include&gt;&gt;" style="edgeStyle=none;endArrow=open;verticalAlign=bottom;dashed=1;labelBackgroundColor=none;rounded=0;exitX=1;exitY=0.5;exitDx=0;exitDy=0;entryX=0;entryY=1;entryDx=0;entryDy=0;strokeColor=#FF3333;fontColor=#00FFFF;" parent="V483_an6sq9II-iybFKx-1" source="V483_an6sq9II-iybFKx-65" target="elvzSRphuKa_Uweao7Ht-73" edge="1">
          <mxGeometry width="160" relative="1" as="geometry">
            <mxPoint x="171.25" y="1397" as="sourcePoint" />
            <mxPoint x="819.25" y="1320" as="targetPoint" />
          </mxGeometry>
        </mxCell>
        <mxCell id="elvzSRphuKa_Uweao7Ht-89" value="&amp;lt;&amp;lt;include&amp;gt;&amp;gt;" style="edgeStyle=none;html=1;endArrow=open;verticalAlign=bottom;dashed=1;labelBackgroundColor=none;rounded=0;exitX=1;exitY=0.5;exitDx=0;exitDy=0;entryX=1;entryY=0.5;entryDx=0;entryDy=0;strokeColor=#FF3333;fontColor=#00FFFF;" parent="V483_an6sq9II-iybFKx-1" source="V483_an6sq9II-iybFKx-48" target="V483_an6sq9II-iybFKx-21" edge="1">
          <mxGeometry width="160" relative="1" as="geometry">
            <mxPoint x="191" y="1370" as="sourcePoint" />
            <mxPoint x="839" y="1293" as="targetPoint" />
            <Array as="points">
              <mxPoint x="230" y="710" />
            </Array>
          </mxGeometry>
        </mxCell>
        <mxCell id="elvzSRphuKa_Uweao7Ht-90" value="&lt;&lt;include&gt;&gt;" style="edgeStyle=none;endArrow=open;verticalAlign=bottom;dashed=1;labelBackgroundColor=none;rounded=0;exitX=1;exitY=0.5;exitDx=0;exitDy=0;entryX=0;entryY=0.5;entryDx=0;entryDy=0;strokeColor=#FF3333;fontColor=#00FFFF;" parent="V483_an6sq9II-iybFKx-1" source="V483_an6sq9II-iybFKx-28" target="elvzSRphuKa_Uweao7Ht-70" edge="1">
          <mxGeometry width="160" relative="1" as="geometry">
            <mxPoint x="186" y="640" as="sourcePoint" />
            <mxPoint x="810" y="100" as="targetPoint" />
          </mxGeometry>
        </mxCell>
        <mxCell id="elvzSRphuKa_Uweao7Ht-92" value="&lt;&lt;include&gt;&gt;" style="edgeStyle=none;endArrow=open;verticalAlign=bottom;dashed=1;labelBackgroundColor=none;rounded=0;exitX=0;exitY=0.5;exitDx=0;exitDy=0;entryX=0.301;entryY=0;entryDx=0;entryDy=0;strokeColor=#FF3333;entryPerimeter=0;fontColor=light-dark(#000000,#00FFFF);labelBorderColor=none;" parent="V483_an6sq9II-iybFKx-1" source="elvzSRphuKa_Uweao7Ht-39" target="elvzSRphuKa_Uweao7Ht-72" edge="1">
          <mxGeometry width="160" relative="1" as="geometry">
            <mxPoint x="183" y="910" as="sourcePoint" />
            <mxPoint x="183" y="490" as="targetPoint" />
            <Array as="points">
              <mxPoint x="780" y="770" />
            </Array>
          </mxGeometry>
        </mxCell>
        <mxCell id="elvzSRphuKa_Uweao7Ht-93" value="&lt;&lt;include&gt;&gt;" style="edgeStyle=none;endArrow=open;verticalAlign=bottom;dashed=1;labelBackgroundColor=none;rounded=0;exitX=0;exitY=0.5;exitDx=0;exitDy=0;strokeColor=#FF3333;fontColor=#00FFFF;" parent="V483_an6sq9II-iybFKx-1" source="elvzSRphuKa_Uweao7Ht-45" target="elvzSRphuKa_Uweao7Ht-71" edge="1">
          <mxGeometry width="160" relative="1" as="geometry">
            <mxPoint x="943" y="630" as="sourcePoint" />
            <mxPoint x="900" y="1200" as="targetPoint" />
            <Array as="points">
              <mxPoint x="790" y="780" />
            </Array>
          </mxGeometry>
        </mxCell>
        <mxCell id="elvzSRphuKa_Uweao7Ht-94" value="Extends" style="endArrow=block;endSize=16;endFill=0;rounded=0;entryX=1;entryY=0.5;entryDx=0;entryDy=0;exitX=0.904;exitY=0.2;exitDx=0;exitDy=0;exitPerimeter=0;fillColor=#e3c800;strokeColor=#B09500;labelBackgroundColor=none;fontColor=#FF99FF;" parent="V483_an6sq9II-iybFKx-1" source="V483_an6sq9II-iybFKx-14" edge="1">
          <mxGeometry width="160" relative="1" as="geometry">
            <mxPoint x="113.69999999999982" y="59.999999999999915" as="sourcePoint" />
            <mxPoint x="172.5" y="130.16" as="targetPoint" />
            <Array as="points">
              <mxPoint x="290" y="90.16" />
            </Array>
          </mxGeometry>
        </mxCell>
        <mxCell id="elvzSRphuKa_Uweao7Ht-103" value="Extends" style="endArrow=block;endSize=16;endFill=0;rounded=0;entryX=1;entryY=0.5;entryDx=0;entryDy=0;exitX=0;exitY=0.5;exitDx=0;exitDy=0;fillColor=#e3c800;strokeColor=#B09500;labelBackgroundColor=none;fontColor=#FF99FF;" parent="V483_an6sq9II-iybFKx-1" source="elvzSRphuKa_Uweao7Ht-43" target="elvzSRphuKa_Uweao7Ht-40" edge="1">
          <mxGeometry width="160" relative="1" as="geometry">
            <mxPoint x="600" y="540" as="sourcePoint" />
            <mxPoint x="614.5" y="602.16" as="targetPoint" />
            <Array as="points">
              <mxPoint x="732" y="562.16" />
            </Array>
          </mxGeometry>
        </mxCell>
        <mxCell id="elvzSRphuKa_Uweao7Ht-104" value="Work with new idea" style="ellipse;whiteSpace=wrap;html=1;" parent="V483_an6sq9II-iybFKx-1" vertex="1">
          <mxGeometry x="320" y="1090" width="146.25" height="40" as="geometry" />
        </mxCell>
        <mxCell id="elvzSRphuKa_Uweao7Ht-105" value="Extends" style="endArrow=block;endSize=16;endFill=0;rounded=0;entryX=0.5;entryY=1;entryDx=0;entryDy=0;exitX=1;exitY=0.5;exitDx=0;exitDy=0;fillColor=#e3c800;strokeColor=#B09500;labelBackgroundColor=none;fontColor=#FF99FF;" parent="V483_an6sq9II-iybFKx-1" source="V483_an6sq9II-iybFKx-59" target="elvzSRphuKa_Uweao7Ht-104" edge="1">
          <mxGeometry width="160" relative="1" as="geometry">
            <mxPoint x="482.12" y="1150" as="sourcePoint" />
            <mxPoint x="184.12" y="1210" as="targetPoint" />
            <Array as="points" />
          </mxGeometry>
        </mxCell>
        <mxCell id="V483_an6sq9II-iybFKx-3" value="Freelancer" style="shape=umlActor;verticalLabelPosition=bottom;verticalAlign=top;html=1;direction=east;strokeColor=#FF33FF;" parent="1" vertex="1">
          <mxGeometry x="90" y="70" width="30" height="60" as="geometry" />
        </mxCell>
        <mxCell id="V483_an6sq9II-iybFKx-29" value="" style="endArrow=none;html=1;rounded=0;entryX=0;entryY=0.5;entryDx=0;entryDy=0;exitX=0.511;exitY=0.342;exitDx=0;exitDy=0;exitPerimeter=0;labelBackgroundColor=#FFFFFF;strokeColor=#FF33FF;" parent="1" source="V483_an6sq9II-iybFKx-3" target="V483_an6sq9II-iybFKx-2" edge="1">
          <mxGeometry relative="1" as="geometry">
            <mxPoint x="110" y="90" as="sourcePoint" />
            <mxPoint x="270" y="90" as="targetPoint" />
          </mxGeometry>
        </mxCell>
        <mxCell id="V483_an6sq9II-iybFKx-30" value="" style="endArrow=none;html=1;rounded=0;entryX=0;entryY=0.5;entryDx=0;entryDy=0;labelBackgroundColor=#FFFFFF;strokeColor=#FF33FF;" parent="1" target="V483_an6sq9II-iybFKx-14" edge="1">
          <mxGeometry relative="1" as="geometry">
            <mxPoint x="105" y="90" as="sourcePoint" />
            <mxPoint x="570" as="targetPoint" />
          </mxGeometry>
        </mxCell>
        <mxCell id="V483_an6sq9II-iybFKx-31" value="" style="endArrow=none;html=1;rounded=0;exitX=0.512;exitY=0.355;exitDx=0;exitDy=0;exitPerimeter=0;entryX=0;entryY=0.5;entryDx=0;entryDy=0;labelBackgroundColor=#FFFFFF;strokeColor=#FF33FF;" parent="1" source="V483_an6sq9II-iybFKx-3" target="V483_an6sq9II-iybFKx-15" edge="1">
          <mxGeometry relative="1" as="geometry">
            <mxPoint x="420" as="sourcePoint" />
            <mxPoint x="580" as="targetPoint" />
          </mxGeometry>
        </mxCell>
        <mxCell id="V483_an6sq9II-iybFKx-32" value="" style="endArrow=none;html=1;rounded=0;exitX=0.512;exitY=0.342;exitDx=0;exitDy=0;exitPerimeter=0;entryX=0;entryY=0.5;entryDx=0;entryDy=0;labelBackgroundColor=#FFFFFF;strokeColor=#FF33FF;" parent="1" source="V483_an6sq9II-iybFKx-3" target="V483_an6sq9II-iybFKx-18" edge="1">
          <mxGeometry relative="1" as="geometry">
            <mxPoint x="420" as="sourcePoint" />
            <mxPoint x="580" as="targetPoint" />
          </mxGeometry>
        </mxCell>
        <mxCell id="V483_an6sq9II-iybFKx-33" value="" style="endArrow=none;html=1;rounded=0;exitX=0.51;exitY=0.34;exitDx=0;exitDy=0;exitPerimeter=0;entryX=0;entryY=0.5;entryDx=0;entryDy=0;labelBackgroundColor=#FFFFFF;strokeColor=#FF33FF;" parent="1" source="V483_an6sq9II-iybFKx-3" target="V483_an6sq9II-iybFKx-19" edge="1">
          <mxGeometry relative="1" as="geometry">
            <mxPoint x="420" as="sourcePoint" />
            <mxPoint x="580" as="targetPoint" />
          </mxGeometry>
        </mxCell>
        <mxCell id="V483_an6sq9II-iybFKx-34" value="" style="endArrow=none;html=1;rounded=0;exitX=0.536;exitY=0.33;exitDx=0;exitDy=0;exitPerimeter=0;entryX=0;entryY=0.5;entryDx=0;entryDy=0;labelBackgroundColor=#FFFFFF;strokeColor=#FF33FF;" parent="1" source="V483_an6sq9II-iybFKx-3" target="V483_an6sq9II-iybFKx-20" edge="1">
          <mxGeometry relative="1" as="geometry">
            <mxPoint x="420" as="sourcePoint" />
            <mxPoint x="580" as="targetPoint" />
          </mxGeometry>
        </mxCell>
        <mxCell id="V483_an6sq9II-iybFKx-35" value="" style="endArrow=none;html=1;rounded=0;entryX=0;entryY=0.5;entryDx=0;entryDy=0;labelBackgroundColor=#FFFFFF;exitX=0.51;exitY=0.335;exitDx=0;exitDy=0;exitPerimeter=0;strokeColor=#FF33FF;" parent="1" source="V483_an6sq9II-iybFKx-3" target="V483_an6sq9II-iybFKx-17" edge="1">
          <mxGeometry relative="1" as="geometry">
            <mxPoint x="110" y="90" as="sourcePoint" />
            <mxPoint x="580" y="120" as="targetPoint" />
          </mxGeometry>
        </mxCell>
        <mxCell id="V483_an6sq9II-iybFKx-36" value="" style="endArrow=none;html=1;rounded=0;exitX=0.508;exitY=0.334;exitDx=0;exitDy=0;exitPerimeter=0;entryX=0;entryY=0.5;entryDx=0;entryDy=0;labelBackgroundColor=#FFFFFF;strokeColor=#FF33FF;" parent="1" source="V483_an6sq9II-iybFKx-3" target="V483_an6sq9II-iybFKx-16" edge="1">
          <mxGeometry relative="1" as="geometry">
            <mxPoint x="420" y="120" as="sourcePoint" />
            <mxPoint x="580" y="120" as="targetPoint" />
          </mxGeometry>
        </mxCell>
        <mxCell id="V483_an6sq9II-iybFKx-37" value="" style="endArrow=none;html=1;rounded=0;entryX=0;entryY=0.5;entryDx=0;entryDy=0;labelBackgroundColor=#FFFFFF;fontColor=#FF00FF;strokeColor=#FF33FF;" parent="1" target="V483_an6sq9II-iybFKx-22" edge="1">
          <mxGeometry relative="1" as="geometry">
            <mxPoint x="105" y="90" as="sourcePoint" />
            <mxPoint x="580" y="150" as="targetPoint" />
          </mxGeometry>
        </mxCell>
        <mxCell id="V483_an6sq9II-iybFKx-38" value="" style="endArrow=none;html=1;rounded=0;entryX=0;entryY=0.5;entryDx=0;entryDy=0;exitX=0.511;exitY=0.34;exitDx=0;exitDy=0;exitPerimeter=0;labelBackgroundColor=#FFFFFF;strokeColor=#FF33FF;" parent="1" source="V483_an6sq9II-iybFKx-3" target="V483_an6sq9II-iybFKx-21" edge="1">
          <mxGeometry relative="1" as="geometry">
            <mxPoint x="110" y="90" as="sourcePoint" />
            <mxPoint x="580" y="230" as="targetPoint" />
          </mxGeometry>
        </mxCell>
        <mxCell id="V483_an6sq9II-iybFKx-39" value="" style="endArrow=none;html=1;rounded=0;entryX=0;entryY=0.5;entryDx=0;entryDy=0;labelBackgroundColor=#FFFFFF;strokeColor=#FF33FF;" parent="1" target="V483_an6sq9II-iybFKx-23" edge="1">
          <mxGeometry relative="1" as="geometry">
            <mxPoint x="105" y="90" as="sourcePoint" />
            <mxPoint x="580" y="230" as="targetPoint" />
          </mxGeometry>
        </mxCell>
        <mxCell id="V483_an6sq9II-iybFKx-40" value="" style="endArrow=none;html=1;rounded=0;exitX=0.501;exitY=0.336;exitDx=0;exitDy=0;exitPerimeter=0;entryX=0;entryY=0.5;entryDx=0;entryDy=0;labelBackgroundColor=#FFFFFF;strokeColor=#FF33FF;" parent="1" source="V483_an6sq9II-iybFKx-3" target="V483_an6sq9II-iybFKx-27" edge="1">
          <mxGeometry relative="1" as="geometry">
            <mxPoint x="110" y="90" as="sourcePoint" />
            <mxPoint x="580" y="230" as="targetPoint" />
          </mxGeometry>
        </mxCell>
        <mxCell id="V483_an6sq9II-iybFKx-41" value="" style="endArrow=none;html=1;rounded=0;entryX=0;entryY=0.5;entryDx=0;entryDy=0;labelBackgroundColor=#FFFFFF;exitX=0.517;exitY=0.333;exitDx=0;exitDy=0;exitPerimeter=0;strokeColor=#FF33FF;" parent="1" source="V483_an6sq9II-iybFKx-3" target="V483_an6sq9II-iybFKx-28" edge="1">
          <mxGeometry relative="1" as="geometry">
            <mxPoint x="110" y="90" as="sourcePoint" />
            <mxPoint x="560" y="200" as="targetPoint" />
          </mxGeometry>
        </mxCell>
        <mxCell id="V483_an6sq9II-iybFKx-42" value="&lt;font style=&quot;color: rgb(128, 255, 0);&quot;&gt;Organization&lt;/font&gt;" style="shape=umlActor;verticalLabelPosition=bottom;verticalAlign=top;html=1;fillColor=#d5e8d4;strokeColor=light-dark(#82b366, #99ff35);container=0;direction=east;" parent="1" vertex="1">
          <mxGeometry x="90" y="670" width="30" height="60" as="geometry" />
        </mxCell>
        <mxCell id="V483_an6sq9II-iybFKx-49" value="" style="endArrow=none;html=1;rounded=0;entryX=0;entryY=0.5;entryDx=0;entryDy=0;fillColor=#60a917;strokeColor=#99FF33;" parent="1" target="V483_an6sq9II-iybFKx-14" edge="1">
          <mxGeometry relative="1" as="geometry">
            <mxPoint x="105" y="690" as="sourcePoint" />
            <mxPoint x="580" y="340" as="targetPoint" />
          </mxGeometry>
        </mxCell>
        <mxCell id="V483_an6sq9II-iybFKx-50" value="" style="endArrow=none;html=1;rounded=0;entryX=0;entryY=0.5;entryDx=0;entryDy=0;fillColor=#e3c800;strokeColor=light-dark(#B09500, #00b3b0);exitX=0.506;exitY=0.328;exitDx=0;exitDy=0;exitPerimeter=0;" parent="1" source="V483_an6sq9II-iybFKx-67" target="V483_an6sq9II-iybFKx-44" edge="1">
          <mxGeometry relative="1" as="geometry">
            <mxPoint x="50" y="720" as="sourcePoint" />
            <mxPoint x="540" y="500" as="targetPoint" />
          </mxGeometry>
        </mxCell>
        <mxCell id="V483_an6sq9II-iybFKx-51" value="" style="endArrow=none;html=1;rounded=0;entryX=0;entryY=0.5;entryDx=0;entryDy=0;fillColor=#60a917;strokeColor=#99FF33;" parent="1" target="V483_an6sq9II-iybFKx-45" edge="1">
          <mxGeometry relative="1" as="geometry">
            <mxPoint x="105" y="689" as="sourcePoint" />
            <mxPoint x="540" y="630" as="targetPoint" />
          </mxGeometry>
        </mxCell>
        <mxCell id="V483_an6sq9II-iybFKx-52" value="" style="endArrow=none;html=1;rounded=0;exitX=0.512;exitY=0.33;exitDx=0;exitDy=0;exitPerimeter=0;entryX=0;entryY=0.5;entryDx=0;entryDy=0;fillColor=#60a917;strokeColor=#99FF33;" parent="1" source="V483_an6sq9II-iybFKx-42" target="V483_an6sq9II-iybFKx-23" edge="1">
          <mxGeometry relative="1" as="geometry">
            <mxPoint x="360" y="450" as="sourcePoint" />
            <mxPoint x="520" y="450" as="targetPoint" />
          </mxGeometry>
        </mxCell>
        <mxCell id="V483_an6sq9II-iybFKx-53" value="" style="endArrow=none;html=1;rounded=0;entryX=0.509;entryY=0.323;entryDx=0;entryDy=0;entryPerimeter=0;exitX=0;exitY=0.5;exitDx=0;exitDy=0;fillColor=#60a917;strokeColor=#99FF33;" parent="1" source="V483_an6sq9II-iybFKx-46" target="V483_an6sq9II-iybFKx-42" edge="1">
          <mxGeometry relative="1" as="geometry">
            <mxPoint x="350" y="550" as="sourcePoint" />
            <mxPoint x="510" y="550" as="targetPoint" />
          </mxGeometry>
        </mxCell>
        <mxCell id="V483_an6sq9II-iybFKx-54" value="" style="endArrow=none;html=1;rounded=0;exitX=0.496;exitY=0.331;exitDx=0;exitDy=0;exitPerimeter=0;entryX=0;entryY=0.5;entryDx=0;entryDy=0;fillColor=#60a917;strokeColor=#99FF33;" parent="1" source="V483_an6sq9II-iybFKx-42" target="V483_an6sq9II-iybFKx-28" edge="1">
          <mxGeometry relative="1" as="geometry">
            <mxPoint x="350" y="430" as="sourcePoint" />
            <mxPoint x="510" y="430" as="targetPoint" />
          </mxGeometry>
        </mxCell>
        <mxCell id="elvzSRphuKa_Uweao7Ht-26" value="" style="edgeStyle=orthogonalEdgeStyle;rounded=0;orthogonalLoop=1;jettySize=auto;html=1;" parent="1" source="V483_an6sq9II-iybFKx-67" edge="1">
          <mxGeometry relative="1" as="geometry">
            <mxPoint x="105" y="670" as="targetPoint" />
          </mxGeometry>
        </mxCell>
        <mxCell id="V483_an6sq9II-iybFKx-67" value="&lt;font style=&quot;color: rgb(51, 255, 255);&quot;&gt;Company&lt;/font&gt;" style="shape=umlActor;verticalLabelPosition=bottom;verticalAlign=top;html=1;direction=east;strokeColor=light-dark(#B09500, #00b3b0);" parent="1" vertex="1">
          <mxGeometry x="-20" y="560" width="30" height="60" as="geometry" />
        </mxCell>
        <mxCell id="V483_an6sq9II-iybFKx-68" value="" style="endArrow=none;html=1;rounded=0;exitX=0.485;exitY=0.329;exitDx=0;exitDy=0;exitPerimeter=0;entryX=0;entryY=0.5;entryDx=0;entryDy=0;fillColor=#60a917;strokeColor=#99FF33;" parent="1" source="V483_an6sq9II-iybFKx-42" target="V483_an6sq9II-iybFKx-47" edge="1">
          <mxGeometry relative="1" as="geometry">
            <mxPoint x="380" y="840" as="sourcePoint" />
            <mxPoint x="540" y="840" as="targetPoint" />
          </mxGeometry>
        </mxCell>
        <mxCell id="V483_an6sq9II-iybFKx-69" value="" style="endArrow=none;html=1;rounded=0;exitX=0.485;exitY=0.329;exitDx=0;exitDy=0;exitPerimeter=0;entryX=0;entryY=0.5;entryDx=0;entryDy=0;fillColor=#60a917;strokeColor=#99FF33;" parent="1" source="V483_an6sq9II-iybFKx-42" target="V483_an6sq9II-iybFKx-48" edge="1">
          <mxGeometry relative="1" as="geometry">
            <mxPoint x="115" y="700" as="sourcePoint" />
            <mxPoint x="180" y="610" as="targetPoint" />
          </mxGeometry>
        </mxCell>
        <mxCell id="V483_an6sq9II-iybFKx-70" value="" style="endArrow=none;html=1;rounded=0;exitX=0.496;exitY=0.324;exitDx=0;exitDy=0;exitPerimeter=0;entryX=0;entryY=0.5;entryDx=0;entryDy=0;fillColor=#60a917;strokeColor=#99FF33;" parent="1" source="V483_an6sq9II-iybFKx-42" target="V483_an6sq9II-iybFKx-43" edge="1">
          <mxGeometry relative="1" as="geometry">
            <mxPoint x="115" y="700" as="sourcePoint" />
            <mxPoint x="180" y="660" as="targetPoint" />
          </mxGeometry>
        </mxCell>
        <mxCell id="V483_an6sq9II-iybFKx-71" value="" style="endArrow=none;html=1;rounded=0;exitX=0.48;exitY=0.33;exitDx=0;exitDy=0;exitPerimeter=0;entryX=0;entryY=0.5;entryDx=0;entryDy=0;" parent="1" source="V483_an6sq9II-iybFKx-42" target="V483_an6sq9II-iybFKx-55" edge="1">
          <mxGeometry relative="1" as="geometry">
            <mxPoint x="115" y="699" as="sourcePoint" />
            <mxPoint x="178" y="710" as="targetPoint" />
          </mxGeometry>
        </mxCell>
        <mxCell id="V483_an6sq9II-iybFKx-72" value="" style="endArrow=none;html=1;rounded=0;exitX=0.509;exitY=0.349;exitDx=0;exitDy=0;exitPerimeter=0;entryX=0;entryY=0.5;entryDx=0;entryDy=0;fillColor=#60a917;strokeColor=light-dark(#99FF33, #99ff35);" parent="1" source="V483_an6sq9II-iybFKx-42" target="V483_an6sq9II-iybFKx-56" edge="1">
          <mxGeometry relative="1" as="geometry">
            <mxPoint x="280" y="960" as="sourcePoint" />
            <mxPoint x="440" y="960" as="targetPoint" />
          </mxGeometry>
        </mxCell>
        <mxCell id="V483_an6sq9II-iybFKx-73" value="" style="endArrow=none;html=1;rounded=0;entryX=0;entryY=0.5;entryDx=0;entryDy=0;exitX=0.504;exitY=0.353;exitDx=0;exitDy=0;exitPerimeter=0;fillColor=#60a917;strokeColor=light-dark(#99FF33, #99ff35);" parent="1" source="V483_an6sq9II-iybFKx-42" target="V483_an6sq9II-iybFKx-57" edge="1">
          <mxGeometry relative="1" as="geometry">
            <mxPoint x="110" y="690" as="sourcePoint" />
            <mxPoint x="180" y="810" as="targetPoint" />
          </mxGeometry>
        </mxCell>
        <mxCell id="V483_an6sq9II-iybFKx-74" value="" style="endArrow=none;html=1;rounded=0;entryX=0;entryY=0.5;entryDx=0;entryDy=0;exitX=0.499;exitY=0.342;exitDx=0;exitDy=0;exitPerimeter=0;fillColor=#60a917;strokeColor=light-dark(#99FF33, #99ff35);" parent="1" source="V483_an6sq9II-iybFKx-42" target="V483_an6sq9II-iybFKx-58" edge="1">
          <mxGeometry relative="1" as="geometry">
            <mxPoint x="115" y="701" as="sourcePoint" />
            <mxPoint x="178" y="860" as="targetPoint" />
          </mxGeometry>
        </mxCell>
        <mxCell id="V483_an6sq9II-iybFKx-75" value="" style="endArrow=none;html=1;rounded=0;entryX=0;entryY=0.5;entryDx=0;entryDy=0;fillColor=#60a917;strokeColor=light-dark(#99FF33, #99ff35);" parent="1" target="V483_an6sq9II-iybFKx-59" edge="1">
          <mxGeometry relative="1" as="geometry">
            <mxPoint x="105" y="690" as="sourcePoint" />
            <mxPoint x="181" y="910" as="targetPoint" />
          </mxGeometry>
        </mxCell>
        <mxCell id="V483_an6sq9II-iybFKx-76" value="" style="endArrow=none;html=1;rounded=0;entryX=0;entryY=0.5;entryDx=0;entryDy=0;exitX=0.497;exitY=0.325;exitDx=0;exitDy=0;exitPerimeter=0;fillColor=#60a917;strokeColor=light-dark(#99FF33, #99ff35);" parent="1" source="V483_an6sq9II-iybFKx-42" target="V483_an6sq9II-iybFKx-63" edge="1">
          <mxGeometry relative="1" as="geometry">
            <mxPoint x="114" y="700" as="sourcePoint" />
            <mxPoint x="178" y="960" as="targetPoint" />
          </mxGeometry>
        </mxCell>
        <mxCell id="V483_an6sq9II-iybFKx-77" value="" style="endArrow=none;html=1;rounded=0;entryX=0;entryY=0.5;entryDx=0;entryDy=0;fillColor=#e3c800;strokeColor=light-dark(#B09500, #00b3b0);exitX=0.519;exitY=0.336;exitDx=0;exitDy=0;exitPerimeter=0;" parent="1" source="V483_an6sq9II-iybFKx-67" target="V483_an6sq9II-iybFKx-64" edge="1">
          <mxGeometry relative="1" as="geometry">
            <mxPoint x="90" y="750" as="sourcePoint" />
            <mxPoint x="178" y="1010" as="targetPoint" />
          </mxGeometry>
        </mxCell>
        <mxCell id="V483_an6sq9II-iybFKx-78" value="" style="endArrow=none;html=1;rounded=0;entryX=0;entryY=0.5;entryDx=0;entryDy=0;fillColor=#60a917;strokeColor=light-dark(#99FF33, #99ff35);" parent="1" target="V483_an6sq9II-iybFKx-65" edge="1">
          <mxGeometry relative="1" as="geometry">
            <mxPoint x="105" y="690" as="sourcePoint" />
            <mxPoint x="178" y="1060" as="targetPoint" />
          </mxGeometry>
        </mxCell>
        <mxCell id="V483_an6sq9II-iybFKx-79" value="" style="endArrow=none;html=1;rounded=0;entryX=0;entryY=0.5;entryDx=0;entryDy=0;exitX=0.487;exitY=0.337;exitDx=0;exitDy=0;exitPerimeter=0;fillColor=#60a917;strokeColor=light-dark(#99FF33, #99ff35);" parent="1" source="V483_an6sq9II-iybFKx-42" target="V483_an6sq9II-iybFKx-66" edge="1">
          <mxGeometry relative="1" as="geometry">
            <mxPoint x="115" y="700" as="sourcePoint" />
            <mxPoint x="178" y="1110" as="targetPoint" />
          </mxGeometry>
        </mxCell>
        <mxCell id="elvzSRphuKa_Uweao7Ht-30" value="" style="edgeStyle=orthogonalEdgeStyle;rounded=0;orthogonalLoop=1;jettySize=auto;html=1;" parent="1" source="elvzSRphuKa_Uweao7Ht-17" target="V483_an6sq9II-iybFKx-42" edge="1">
          <mxGeometry relative="1" as="geometry">
            <mxPoint x="-100" y="840" as="targetPoint" />
          </mxGeometry>
        </mxCell>
        <mxCell id="elvzSRphuKa_Uweao7Ht-17" value="&lt;font style=&quot;color: rgb(0, 127, 255);&quot;&gt;Team&lt;/font&gt;" style="shape=umlActor;verticalLabelPosition=bottom;verticalAlign=top;html=1;fillColor=#ffff88;strokeColor=#007FFF;container=0;" parent="1" vertex="1">
          <mxGeometry x="-20" y="810" width="30" height="60" as="geometry" />
        </mxCell>
        <mxCell id="elvzSRphuKa_Uweao7Ht-32" value="" style="endArrow=none;html=1;rounded=0;exitX=0.497;exitY=0.33;exitDx=0;exitDy=0;exitPerimeter=0;entryX=0;entryY=0.5;entryDx=0;entryDy=0;strokeColor=#007FFF;fillColor=#ffff88;" parent="1" source="elvzSRphuKa_Uweao7Ht-17" target="elvzSRphuKa_Uweao7Ht-31" edge="1">
          <mxGeometry relative="1" as="geometry">
            <mxPoint x="130" y="990" as="sourcePoint" />
            <mxPoint x="290" y="990" as="targetPoint" />
          </mxGeometry>
        </mxCell>
        <mxCell id="elvzSRphuKa_Uweao7Ht-35" value="Admin" style="shape=umlActor;verticalLabelPosition=bottom;verticalAlign=top;html=1;fillColor=#0050ef;fontColor=#ffffff;strokeColor=#001DBC;" parent="1" vertex="1">
          <mxGeometry x="1300" y="400" width="30" height="60" as="geometry" />
        </mxCell>
        <mxCell id="elvzSRphuKa_Uweao7Ht-49" value="" style="endArrow=none;html=1;rounded=0;exitX=1;exitY=0.5;exitDx=0;exitDy=0;fillColor=#0050ef;strokeColor=#001DBC;" parent="1" source="elvzSRphuKa_Uweao7Ht-36" edge="1">
          <mxGeometry relative="1" as="geometry">
            <mxPoint x="700" y="410" as="sourcePoint" />
            <mxPoint x="1315" y="420" as="targetPoint" />
          </mxGeometry>
        </mxCell>
        <mxCell id="elvzSRphuKa_Uweao7Ht-50" value="" style="endArrow=none;html=1;rounded=0;entryX=0.515;entryY=0.341;entryDx=0;entryDy=0;entryPerimeter=0;exitX=1;exitY=0.5;exitDx=0;exitDy=0;fillColor=#0050ef;strokeColor=#001DBC;" parent="1" source="elvzSRphuKa_Uweao7Ht-37" target="elvzSRphuKa_Uweao7Ht-35" edge="1">
          <mxGeometry relative="1" as="geometry">
            <mxPoint x="1000" y="300" as="sourcePoint" />
            <mxPoint x="1160" y="300" as="targetPoint" />
          </mxGeometry>
        </mxCell>
        <mxCell id="elvzSRphuKa_Uweao7Ht-51" value="" style="endArrow=none;html=1;rounded=0;entryX=0.506;entryY=0.335;entryDx=0;entryDy=0;entryPerimeter=0;exitX=1;exitY=0.5;exitDx=0;exitDy=0;fillColor=#0050ef;strokeColor=#001DBC;" parent="1" source="elvzSRphuKa_Uweao7Ht-43" target="elvzSRphuKa_Uweao7Ht-35" edge="1">
          <mxGeometry relative="1" as="geometry">
            <mxPoint x="1240" y="330" as="sourcePoint" />
            <mxPoint x="1400" y="330" as="targetPoint" />
          </mxGeometry>
        </mxCell>
        <mxCell id="elvzSRphuKa_Uweao7Ht-53" value="" style="endArrow=none;html=1;rounded=0;entryX=0.477;entryY=0.329;entryDx=0;entryDy=0;entryPerimeter=0;exitX=1;exitY=0.5;exitDx=0;exitDy=0;fillColor=#0050ef;strokeColor=#001DBC;" parent="1" source="elvzSRphuKa_Uweao7Ht-39" target="elvzSRphuKa_Uweao7Ht-35" edge="1">
          <mxGeometry relative="1" as="geometry">
            <mxPoint x="1070" y="390" as="sourcePoint" />
            <mxPoint x="1230" y="390" as="targetPoint" />
          </mxGeometry>
        </mxCell>
        <mxCell id="elvzSRphuKa_Uweao7Ht-54" value="" style="endArrow=none;html=1;rounded=0;entryX=0.491;entryY=0.336;entryDx=0;entryDy=0;entryPerimeter=0;exitX=1;exitY=0.5;exitDx=0;exitDy=0;fillColor=#0050ef;strokeColor=#001DBC;" parent="1" source="elvzSRphuKa_Uweao7Ht-38" target="elvzSRphuKa_Uweao7Ht-35" edge="1">
          <mxGeometry relative="1" as="geometry">
            <mxPoint x="1070" y="390" as="sourcePoint" />
            <mxPoint x="1230" y="390" as="targetPoint" />
          </mxGeometry>
        </mxCell>
        <mxCell id="elvzSRphuKa_Uweao7Ht-55" value="" style="endArrow=none;html=1;rounded=0;entryX=0.491;entryY=0.339;entryDx=0;entryDy=0;entryPerimeter=0;exitX=1;exitY=0.5;exitDx=0;exitDy=0;fillColor=#0050ef;strokeColor=#001DBC;" parent="1" source="elvzSRphuKa_Uweao7Ht-41" target="elvzSRphuKa_Uweao7Ht-35" edge="1">
          <mxGeometry relative="1" as="geometry">
            <mxPoint x="1170" y="410" as="sourcePoint" />
            <mxPoint x="1330" y="410" as="targetPoint" />
          </mxGeometry>
        </mxCell>
        <mxCell id="elvzSRphuKa_Uweao7Ht-56" value="" style="endArrow=none;html=1;rounded=0;exitX=1;exitY=0.5;exitDx=0;exitDy=0;fillColor=#0050ef;strokeColor=#001DBC;" parent="1" source="elvzSRphuKa_Uweao7Ht-42" edge="1">
          <mxGeometry relative="1" as="geometry">
            <mxPoint x="1140" y="360" as="sourcePoint" />
            <mxPoint x="1315" y="420" as="targetPoint" />
          </mxGeometry>
        </mxCell>
        <mxCell id="elvzSRphuKa_Uweao7Ht-57" value="" style="endArrow=none;html=1;rounded=0;entryX=0.523;entryY=0.334;entryDx=0;entryDy=0;entryPerimeter=0;exitX=1;exitY=0.5;exitDx=0;exitDy=0;fillColor=#0050ef;strokeColor=#001DBC;" parent="1" source="elvzSRphuKa_Uweao7Ht-45" target="elvzSRphuKa_Uweao7Ht-35" edge="1">
          <mxGeometry relative="1" as="geometry">
            <mxPoint x="1200" y="480" as="sourcePoint" />
            <mxPoint x="1360" y="480" as="targetPoint" />
          </mxGeometry>
        </mxCell>
        <mxCell id="elvzSRphuKa_Uweao7Ht-58" value="" style="endArrow=none;html=1;rounded=0;entryX=0.501;entryY=0.33;entryDx=0;entryDy=0;entryPerimeter=0;exitX=1;exitY=0.5;exitDx=0;exitDy=0;fillColor=#0050ef;strokeColor=#001DBC;" parent="1" source="elvzSRphuKa_Uweao7Ht-46" target="elvzSRphuKa_Uweao7Ht-35" edge="1">
          <mxGeometry relative="1" as="geometry">
            <mxPoint x="1100" y="460" as="sourcePoint" />
            <mxPoint x="1260" y="460" as="targetPoint" />
          </mxGeometry>
        </mxCell>
        <mxCell id="elvzSRphuKa_Uweao7Ht-59" value="" style="endArrow=none;html=1;rounded=0;entryX=0.51;entryY=0.34;entryDx=0;entryDy=0;entryPerimeter=0;exitX=1;exitY=0.5;exitDx=0;exitDy=0;fillColor=#0050ef;strokeColor=#001DBC;" parent="1" source="elvzSRphuKa_Uweao7Ht-44" target="elvzSRphuKa_Uweao7Ht-35" edge="1">
          <mxGeometry relative="1" as="geometry">
            <mxPoint x="1200" y="520" as="sourcePoint" />
            <mxPoint x="1310" y="420" as="targetPoint" />
          </mxGeometry>
        </mxCell>
        <mxCell id="elvzSRphuKa_Uweao7Ht-60" value="" style="endArrow=none;html=1;rounded=0;entryX=0.512;entryY=0.329;entryDx=0;entryDy=0;entryPerimeter=0;exitX=1;exitY=0.5;exitDx=0;exitDy=0;fillColor=#0050ef;strokeColor=#001DBC;" parent="1" source="elvzSRphuKa_Uweao7Ht-48" target="elvzSRphuKa_Uweao7Ht-35" edge="1">
          <mxGeometry relative="1" as="geometry">
            <mxPoint x="1220" y="490" as="sourcePoint" />
            <mxPoint x="1350" y="540" as="targetPoint" />
          </mxGeometry>
        </mxCell>
        <mxCell id="elvzSRphuKa_Uweao7Ht-61" value="" style="endArrow=none;html=1;rounded=0;entryX=0.507;entryY=0.336;entryDx=0;entryDy=0;entryPerimeter=0;exitX=1;exitY=0.5;exitDx=0;exitDy=0;fillColor=#0050ef;strokeColor=#001DBC;" parent="1" source="elvzSRphuKa_Uweao7Ht-47" target="elvzSRphuKa_Uweao7Ht-35" edge="1">
          <mxGeometry relative="1" as="geometry">
            <mxPoint x="1250" y="610" as="sourcePoint" />
            <mxPoint x="1410" y="610" as="targetPoint" />
          </mxGeometry>
        </mxCell>
        <mxCell id="elvzSRphuKa_Uweao7Ht-62" value="AI Engine" style="shape=umlActor;verticalLabelPosition=bottom;verticalAlign=top;html=1;fillColor=#fa6800;fontColor=#000000;strokeColor=#C73500;" parent="1" vertex="1">
          <mxGeometry x="1300" y="-210" width="30" height="60" as="geometry" />
        </mxCell>
        <mxCell id="elvzSRphuKa_Uweao7Ht-63" value="Payment Gateway" style="shape=umlActor;verticalLabelPosition=bottom;verticalAlign=top;html=1;fillColor=#fa6800;fontColor=#000000;strokeColor=#C73500;" parent="1" vertex="1">
          <mxGeometry x="1300" y="910" width="30" height="60" as="geometry" />
        </mxCell>
        <mxCell id="elvzSRphuKa_Uweao7Ht-107" value="" style="endArrow=none;html=1;rounded=0;entryX=0.507;entryY=0.336;entryDx=0;entryDy=0;entryPerimeter=0;exitX=1;exitY=0.5;exitDx=0;exitDy=0;fillColor=#fa6800;strokeColor=#C73500;" parent="1" source="elvzSRphuKa_Uweao7Ht-72" target="elvzSRphuKa_Uweao7Ht-63" edge="1">
          <mxGeometry relative="1" as="geometry">
            <mxPoint x="680" y="700" as="sourcePoint" />
            <mxPoint x="840" y="700" as="targetPoint" />
          </mxGeometry>
        </mxCell>
        <mxCell id="elvzSRphuKa_Uweao7Ht-108" value="" style="endArrow=none;html=1;rounded=0;exitX=1;exitY=0.5;exitDx=0;exitDy=0;fillColor=#fa6800;strokeColor=#C73500;" parent="1" source="elvzSRphuKa_Uweao7Ht-73" edge="1">
          <mxGeometry relative="1" as="geometry">
            <mxPoint x="1230" y="910" as="sourcePoint" />
            <mxPoint x="1315" y="930" as="targetPoint" />
          </mxGeometry>
        </mxCell>
        <mxCell id="elvzSRphuKa_Uweao7Ht-109" value="" style="endArrow=none;html=1;rounded=0;exitX=1;exitY=0.5;exitDx=0;exitDy=0;entryX=0.482;entryY=0.344;entryDx=0;entryDy=0;entryPerimeter=0;fillColor=#fa6800;strokeColor=#C73500;" parent="1" source="elvzSRphuKa_Uweao7Ht-74" target="elvzSRphuKa_Uweao7Ht-63" edge="1">
          <mxGeometry relative="1" as="geometry">
            <mxPoint x="1226" y="960" as="sourcePoint" />
            <mxPoint x="1325" y="940" as="targetPoint" />
          </mxGeometry>
        </mxCell>
        <mxCell id="elvzSRphuKa_Uweao7Ht-110" value="" style="endArrow=none;html=1;rounded=0;exitX=1;exitY=0.5;exitDx=0;exitDy=0;entryX=0.504;entryY=0.334;entryDx=0;entryDy=0;entryPerimeter=0;fillColor=#fa6800;strokeColor=#C73500;" parent="1" source="elvzSRphuKa_Uweao7Ht-64" target="elvzSRphuKa_Uweao7Ht-62" edge="1">
          <mxGeometry relative="1" as="geometry">
            <mxPoint x="1210" y="-220" as="sourcePoint" />
            <mxPoint x="1309" y="-240" as="targetPoint" />
          </mxGeometry>
        </mxCell>
        <mxCell id="elvzSRphuKa_Uweao7Ht-111" value="" style="endArrow=none;html=1;rounded=0;exitX=1;exitY=0.5;exitDx=0;exitDy=0;entryX=0.482;entryY=0.34;entryDx=0;entryDy=0;entryPerimeter=0;fillColor=#fa6800;strokeColor=#C73500;" parent="1" source="elvzSRphuKa_Uweao7Ht-70" target="elvzSRphuKa_Uweao7Ht-62" edge="1">
          <mxGeometry relative="1" as="geometry">
            <mxPoint x="1226" y="-210" as="sourcePoint" />
            <mxPoint x="1325" y="-180" as="targetPoint" />
          </mxGeometry>
        </mxCell>
        <mxCell id="elvzSRphuKa_Uweao7Ht-112" value="" style="endArrow=none;html=1;rounded=0;exitX=1;exitY=0.5;exitDx=0;exitDy=0;entryX=0.496;entryY=0.334;entryDx=0;entryDy=0;entryPerimeter=0;fillColor=#fa6800;strokeColor=#C73500;" parent="1" source="elvzSRphuKa_Uweao7Ht-71" target="elvzSRphuKa_Uweao7Ht-62" edge="1">
          <mxGeometry relative="1" as="geometry">
            <mxPoint x="1236" y="-200" as="sourcePoint" />
            <mxPoint x="1335" y="-170" as="targetPoint" />
          </mxGeometry>
        </mxCell>
      </root>
    </mxGraphModel>
  </diagram>
</mxfile>
